<mxfile host="app.diagrams.net" agent="Mozilla/5.0 (Windows NT 10.0; Win64; x64) AppleWebKit/537.36 (KHTML, like Gecko) Chrome/138.0.0.0 Safari/537.36" version="28.0.6">
  <diagram id="aS9pjdUC0Do7hMSleVWt" name="第 1 页">
    <mxGraphModel dx="2203" dy="1138" grid="0" gridSize="10" guides="1" tooltips="1" connect="1" arrows="1" fold="1" page="1" pageScale="1" pageWidth="3300" pageHeight="2339" background="none" math="0" shadow="0">
      <root>
        <mxCell id="0" />
        <mxCell id="1" parent="0" />
        <mxCell id="HyDP0fXbinYU09aLnzdq-76" value="监控服务器列表" style="shape=table;startSize=23;container=1;collapsible=0;childLayout=tableLayout;strokeColor=default;fontSize=16;movable=1;resizable=1;rotatable=1;deletable=1;editable=1;locked=0;connectable=1;" parent="1" vertex="1">
          <mxGeometry x="1048" y="519" width="653.7295258620695" height="177.93243534482758" as="geometry" />
        </mxCell>
        <mxCell id="HyDP0fXbinYU09aLnzdq-77" value="" style="shape=tableRow;horizontal=0;startSize=0;swimlaneHead=0;swimlaneBody=0;strokeColor=inherit;top=0;left=0;bottom=0;right=0;collapsible=0;dropTarget=0;fillColor=none;points=[[0,0.5],[1,0.5]];portConstraint=eastwest;fontSize=16;" parent="HyDP0fXbinYU09aLnzdq-76" vertex="1">
          <mxGeometry y="23" width="653.7295258620695" height="37" as="geometry" />
        </mxCell>
        <mxCell id="HyDP0fXbinYU09aLnzdq-78" value="服务器名称" style="shape=partialRectangle;html=1;whiteSpace=wrap;connectable=0;strokeColor=#6c8ebf;overflow=hidden;fillColor=#dae8fc;top=0;left=0;bottom=0;right=0;pointerEvents=1;fontSize=16;" parent="HyDP0fXbinYU09aLnzdq-77" vertex="1">
          <mxGeometry width="130" height="37" as="geometry">
            <mxRectangle width="130" height="37" as="alternateBounds" />
          </mxGeometry>
        </mxCell>
        <mxCell id="HyDP0fXbinYU09aLnzdq-79" value="监控接口地址" style="shape=partialRectangle;html=1;whiteSpace=wrap;connectable=0;strokeColor=#6c8ebf;overflow=hidden;fillColor=#dae8fc;top=0;left=0;bottom=0;right=0;pointerEvents=1;fontSize=16;" parent="HyDP0fXbinYU09aLnzdq-77" vertex="1">
          <mxGeometry x="130" width="337" height="37" as="geometry">
            <mxRectangle width="337" height="37" as="alternateBounds" />
          </mxGeometry>
        </mxCell>
        <mxCell id="HyDP0fXbinYU09aLnzdq-80" value="当前状态" style="shape=partialRectangle;html=1;whiteSpace=wrap;connectable=0;strokeColor=#6c8ebf;overflow=hidden;fillColor=#dae8fc;top=0;left=0;bottom=0;right=0;pointerEvents=1;fontSize=16;" parent="HyDP0fXbinYU09aLnzdq-77" vertex="1">
          <mxGeometry x="467" width="92" height="37" as="geometry">
            <mxRectangle width="92" height="37" as="alternateBounds" />
          </mxGeometry>
        </mxCell>
        <mxCell id="HyDP0fXbinYU09aLnzdq-81" value="超时阈值" style="shape=partialRectangle;html=1;whiteSpace=wrap;connectable=0;strokeColor=#6c8ebf;overflow=hidden;fillColor=#dae8fc;top=0;left=0;bottom=0;right=0;pointerEvents=1;fontSize=16;" parent="HyDP0fXbinYU09aLnzdq-77" vertex="1">
          <mxGeometry x="559" width="95" height="37" as="geometry">
            <mxRectangle width="95" height="37" as="alternateBounds" />
          </mxGeometry>
        </mxCell>
        <mxCell id="HyDP0fXbinYU09aLnzdq-83" value="" style="shape=tableRow;horizontal=0;startSize=0;swimlaneHead=0;swimlaneBody=0;strokeColor=inherit;top=0;left=0;bottom=0;right=0;collapsible=0;dropTarget=0;fillColor=none;points=[[0,0.5],[1,0.5]];portConstraint=eastwest;fontSize=16;" parent="HyDP0fXbinYU09aLnzdq-76" vertex="1">
          <mxGeometry y="60" width="653.7295258620695" height="31" as="geometry" />
        </mxCell>
        <mxCell id="HyDP0fXbinYU09aLnzdq-84" value="巢粉-课程服务1" style="shape=partialRectangle;html=1;whiteSpace=wrap;connectable=0;strokeColor=inherit;overflow=hidden;fillColor=none;top=0;left=0;bottom=0;right=0;pointerEvents=1;fontSize=16;" parent="HyDP0fXbinYU09aLnzdq-83" vertex="1">
          <mxGeometry width="130" height="31" as="geometry">
            <mxRectangle width="130" height="31" as="alternateBounds" />
          </mxGeometry>
        </mxCell>
        <mxCell id="HyDP0fXbinYU09aLnzdq-85" value="&lt;div&gt;&lt;span style=&quot;background-color: light-dark(rgb(255, 255, 255), rgb(18, 18, 18)); color: light-dark(rgb(31, 31, 31), rgb(210, 210, 210)); font-family: system-ui, sans-serif; font-size: 12px; text-align: start;&quot;&gt;http://study.elecnest.cn/test-api/kc/monitorApi&lt;/span&gt;&lt;/div&gt;" style="shape=partialRectangle;html=1;whiteSpace=wrap;connectable=0;strokeColor=inherit;overflow=hidden;fillColor=none;top=0;left=0;bottom=0;right=0;pointerEvents=1;fontSize=16;" parent="HyDP0fXbinYU09aLnzdq-83" vertex="1">
          <mxGeometry x="130" width="337" height="31" as="geometry">
            <mxRectangle width="337" height="31" as="alternateBounds" />
          </mxGeometry>
        </mxCell>
        <mxCell id="HyDP0fXbinYU09aLnzdq-86" value="正常" style="shape=partialRectangle;html=1;whiteSpace=wrap;connectable=0;strokeColor=inherit;overflow=hidden;fillColor=none;top=0;left=0;bottom=0;right=0;pointerEvents=1;fontSize=16;" parent="HyDP0fXbinYU09aLnzdq-83" vertex="1">
          <mxGeometry x="467" width="92" height="31" as="geometry">
            <mxRectangle width="92" height="31" as="alternateBounds" />
          </mxGeometry>
        </mxCell>
        <mxCell id="HyDP0fXbinYU09aLnzdq-87" value="5秒" style="shape=partialRectangle;html=1;whiteSpace=wrap;connectable=0;strokeColor=inherit;overflow=hidden;fillColor=none;top=0;left=0;bottom=0;right=0;pointerEvents=1;fontSize=16;" parent="HyDP0fXbinYU09aLnzdq-83" vertex="1">
          <mxGeometry x="559" width="95" height="31" as="geometry">
            <mxRectangle width="95" height="31" as="alternateBounds" />
          </mxGeometry>
        </mxCell>
        <mxCell id="HyDP0fXbinYU09aLnzdq-89" value="" style="shape=tableRow;horizontal=0;startSize=0;swimlaneHead=0;swimlaneBody=0;strokeColor=inherit;top=0;left=0;bottom=0;right=0;collapsible=0;dropTarget=0;fillColor=none;points=[[0,0.5],[1,0.5]];portConstraint=eastwest;fontSize=16;" parent="HyDP0fXbinYU09aLnzdq-76" vertex="1">
          <mxGeometry y="91" width="653.7295258620695" height="31" as="geometry" />
        </mxCell>
        <mxCell id="HyDP0fXbinYU09aLnzdq-90" value="巢粉-考试服务" style="shape=partialRectangle;html=1;whiteSpace=wrap;connectable=0;strokeColor=inherit;overflow=hidden;fillColor=none;top=0;left=0;bottom=0;right=0;pointerEvents=1;fontSize=16;" parent="HyDP0fXbinYU09aLnzdq-89" vertex="1">
          <mxGeometry width="130" height="31" as="geometry">
            <mxRectangle width="130" height="31" as="alternateBounds" />
          </mxGeometry>
        </mxCell>
        <mxCell id="HyDP0fXbinYU09aLnzdq-91" value="&lt;span style=&quot;color: rgb(31, 31, 31); font-family: system-ui, sans-serif; font-size: 12px; text-align: start; background-color: rgb(255, 255, 255);&quot;&gt;http://study.elecnest.cn/test-api/exam/monitorApi&lt;/span&gt;" style="shape=partialRectangle;html=1;whiteSpace=wrap;connectable=0;strokeColor=inherit;overflow=hidden;fillColor=none;top=0;left=0;bottom=0;right=0;pointerEvents=1;fontSize=16;" parent="HyDP0fXbinYU09aLnzdq-89" vertex="1">
          <mxGeometry x="130" width="337" height="31" as="geometry">
            <mxRectangle width="337" height="31" as="alternateBounds" />
          </mxGeometry>
        </mxCell>
        <mxCell id="HyDP0fXbinYU09aLnzdq-92" value="异常" style="shape=partialRectangle;html=1;whiteSpace=wrap;connectable=0;strokeColor=inherit;overflow=hidden;fillColor=none;top=0;left=0;bottom=0;right=0;pointerEvents=1;fontSize=16;" parent="HyDP0fXbinYU09aLnzdq-89" vertex="1">
          <mxGeometry x="467" width="92" height="31" as="geometry">
            <mxRectangle width="92" height="31" as="alternateBounds" />
          </mxGeometry>
        </mxCell>
        <mxCell id="HyDP0fXbinYU09aLnzdq-93" value="2秒" style="shape=partialRectangle;html=1;whiteSpace=wrap;connectable=0;strokeColor=inherit;overflow=hidden;fillColor=none;top=0;left=0;bottom=0;right=0;pointerEvents=1;fontSize=16;" parent="HyDP0fXbinYU09aLnzdq-89" vertex="1">
          <mxGeometry x="559" width="95" height="31" as="geometry">
            <mxRectangle width="95" height="31" as="alternateBounds" />
          </mxGeometry>
        </mxCell>
        <mxCell id="HyDP0fXbinYU09aLnzdq-95" style="shape=tableRow;horizontal=0;startSize=0;swimlaneHead=0;swimlaneBody=0;strokeColor=inherit;top=0;left=0;bottom=0;right=0;collapsible=0;dropTarget=0;fillColor=none;points=[[0,0.5],[1,0.5]];portConstraint=eastwest;fontSize=16;" parent="HyDP0fXbinYU09aLnzdq-76" vertex="1">
          <mxGeometry y="122" width="653.7295258620695" height="28" as="geometry" />
        </mxCell>
        <mxCell id="HyDP0fXbinYU09aLnzdq-96" value="单点登录1" style="shape=partialRectangle;html=1;whiteSpace=wrap;connectable=0;strokeColor=inherit;overflow=hidden;fillColor=none;top=0;left=0;bottom=0;right=0;pointerEvents=1;fontSize=16;" parent="HyDP0fXbinYU09aLnzdq-95" vertex="1">
          <mxGeometry width="130" height="28" as="geometry">
            <mxRectangle width="130" height="28" as="alternateBounds" />
          </mxGeometry>
        </mxCell>
        <mxCell id="HyDP0fXbinYU09aLnzdq-97" value="&lt;span style=&quot;color: rgb(31, 31, 31); font-family: system-ui, sans-serif; font-size: 12px; text-align: start; background-color: rgb(255, 255, 255);&quot;&gt;http://。。。。。&lt;/span&gt;" style="shape=partialRectangle;html=1;whiteSpace=wrap;connectable=0;strokeColor=inherit;overflow=hidden;fillColor=none;top=0;left=0;bottom=0;right=0;pointerEvents=1;fontSize=16;" parent="HyDP0fXbinYU09aLnzdq-95" vertex="1">
          <mxGeometry x="130" width="337" height="28" as="geometry">
            <mxRectangle width="337" height="28" as="alternateBounds" />
          </mxGeometry>
        </mxCell>
        <mxCell id="HyDP0fXbinYU09aLnzdq-98" value="超时" style="shape=partialRectangle;html=1;whiteSpace=wrap;connectable=0;strokeColor=inherit;overflow=hidden;fillColor=none;top=0;left=0;bottom=0;right=0;pointerEvents=1;fontSize=16;" parent="HyDP0fXbinYU09aLnzdq-95" vertex="1">
          <mxGeometry x="467" width="92" height="28" as="geometry">
            <mxRectangle width="92" height="28" as="alternateBounds" />
          </mxGeometry>
        </mxCell>
        <mxCell id="HyDP0fXbinYU09aLnzdq-99" value="10秒" style="shape=partialRectangle;html=1;whiteSpace=wrap;connectable=0;strokeColor=inherit;overflow=hidden;fillColor=none;top=0;left=0;bottom=0;right=0;pointerEvents=1;fontSize=16;" parent="HyDP0fXbinYU09aLnzdq-95" vertex="1">
          <mxGeometry x="559" width="95" height="28" as="geometry">
            <mxRectangle width="95" height="28" as="alternateBounds" />
          </mxGeometry>
        </mxCell>
        <mxCell id="HyDP0fXbinYU09aLnzdq-101" style="shape=tableRow;horizontal=0;startSize=0;swimlaneHead=0;swimlaneBody=0;strokeColor=inherit;top=0;left=0;bottom=0;right=0;collapsible=0;dropTarget=0;fillColor=none;points=[[0,0.5],[1,0.5]];portConstraint=eastwest;fontSize=16;" parent="HyDP0fXbinYU09aLnzdq-76" vertex="1">
          <mxGeometry y="150" width="653.7295258620695" height="28" as="geometry" />
        </mxCell>
        <mxCell id="HyDP0fXbinYU09aLnzdq-102" value="公告服务1" style="shape=partialRectangle;html=1;whiteSpace=wrap;connectable=0;strokeColor=inherit;overflow=hidden;fillColor=none;top=0;left=0;bottom=0;right=0;pointerEvents=1;fontSize=16;" parent="HyDP0fXbinYU09aLnzdq-101" vertex="1">
          <mxGeometry width="130" height="28" as="geometry">
            <mxRectangle width="130" height="28" as="alternateBounds" />
          </mxGeometry>
        </mxCell>
        <mxCell id="HyDP0fXbinYU09aLnzdq-103" value="&lt;span style=&quot;color: rgb(31, 31, 31); font-family: system-ui, sans-serif; font-size: 12px; text-align: start; background-color: rgb(255, 255, 255);&quot;&gt;http://。。。。。&lt;/span&gt;" style="shape=partialRectangle;html=1;whiteSpace=wrap;connectable=0;strokeColor=inherit;overflow=hidden;fillColor=none;top=0;left=0;bottom=0;right=0;pointerEvents=1;fontSize=16;" parent="HyDP0fXbinYU09aLnzdq-101" vertex="1">
          <mxGeometry x="130" width="337" height="28" as="geometry">
            <mxRectangle width="337" height="28" as="alternateBounds" />
          </mxGeometry>
        </mxCell>
        <mxCell id="HyDP0fXbinYU09aLnzdq-104" value="正常" style="shape=partialRectangle;html=1;whiteSpace=wrap;connectable=0;strokeColor=inherit;overflow=hidden;fillColor=none;top=0;left=0;bottom=0;right=0;pointerEvents=1;fontSize=16;" parent="HyDP0fXbinYU09aLnzdq-101" vertex="1">
          <mxGeometry x="467" width="92" height="28" as="geometry">
            <mxRectangle width="92" height="28" as="alternateBounds" />
          </mxGeometry>
        </mxCell>
        <mxCell id="HyDP0fXbinYU09aLnzdq-105" value="5秒" style="shape=partialRectangle;html=1;whiteSpace=wrap;connectable=0;strokeColor=inherit;overflow=hidden;fillColor=none;top=0;left=0;bottom=0;right=0;pointerEvents=1;fontSize=16;" parent="HyDP0fXbinYU09aLnzdq-101" vertex="1">
          <mxGeometry x="559" width="95" height="28" as="geometry">
            <mxRectangle width="95" height="28" as="alternateBounds" />
          </mxGeometry>
        </mxCell>
        <mxCell id="HyDP0fXbinYU09aLnzdq-175" value="开始" style="rounded=1;whiteSpace=wrap;html=1;" parent="1" vertex="1">
          <mxGeometry x="831" y="468" width="120" height="60" as="geometry" />
        </mxCell>
        <mxCell id="y5Wp0UPC7-H-uwMYV2mb-9" style="edgeStyle=orthogonalEdgeStyle;rounded=0;orthogonalLoop=1;jettySize=auto;html=1;exitX=0.5;exitY=1;exitDx=0;exitDy=0;" edge="1" parent="1" source="HyDP0fXbinYU09aLnzdq-176" target="y5Wp0UPC7-H-uwMYV2mb-1">
          <mxGeometry relative="1" as="geometry" />
        </mxCell>
        <mxCell id="HyDP0fXbinYU09aLnzdq-176" value="拉去需监控接口列表，循环遍历检查接口情况" style="rounded=0;whiteSpace=wrap;html=1;" parent="1" vertex="1">
          <mxGeometry x="816" y="555" width="150" height="81" as="geometry" />
        </mxCell>
        <mxCell id="HyDP0fXbinYU09aLnzdq-177" value="" style="endArrow=classic;html=1;rounded=0;exitX=0.5;exitY=1;exitDx=0;exitDy=0;" parent="1" source="HyDP0fXbinYU09aLnzdq-175" target="HyDP0fXbinYU09aLnzdq-176" edge="1">
          <mxGeometry width="50" height="50" relative="1" as="geometry">
            <mxPoint x="582" y="1136" as="sourcePoint" />
            <mxPoint x="632" y="1086" as="targetPoint" />
          </mxGeometry>
        </mxCell>
        <mxCell id="HyDP0fXbinYU09aLnzdq-178" value="结束" style="rounded=1;whiteSpace=wrap;html=1;" parent="1" vertex="1">
          <mxGeometry x="823" y="1053" width="120" height="60" as="geometry" />
        </mxCell>
        <mxCell id="y5Wp0UPC7-H-uwMYV2mb-1" value="接口上次状态&amp;amp;当前&lt;span style=&quot;background-color: transparent; color: light-dark(rgb(0, 0, 0), rgb(255, 255, 255));&quot;&gt;状态&lt;/span&gt;" style="strokeWidth=2;html=1;shape=mxgraph.flowchart.decision;whiteSpace=wrap;" vertex="1" parent="1">
          <mxGeometry x="787" y="663" width="208" height="114.33" as="geometry" />
        </mxCell>
        <mxCell id="y5Wp0UPC7-H-uwMYV2mb-21" style="edgeStyle=orthogonalEdgeStyle;rounded=0;orthogonalLoop=1;jettySize=auto;html=1;exitX=0.5;exitY=1;exitDx=0;exitDy=0;" edge="1" parent="1" source="y5Wp0UPC7-H-uwMYV2mb-4" target="y5Wp0UPC7-H-uwMYV2mb-18">
          <mxGeometry relative="1" as="geometry" />
        </mxCell>
        <mxCell id="y5Wp0UPC7-H-uwMYV2mb-4" value="正常变&lt;span style=&quot;background-color: transparent; color: light-dark(rgb(0, 0, 0), rgb(255, 255, 255));&quot;&gt;异常&lt;/span&gt;" style="rounded=0;whiteSpace=wrap;html=1;" vertex="1" parent="1">
          <mxGeometry x="1123" y="826" width="118" height="61.34" as="geometry" />
        </mxCell>
        <mxCell id="y5Wp0UPC7-H-uwMYV2mb-20" style="edgeStyle=orthogonalEdgeStyle;rounded=0;orthogonalLoop=1;jettySize=auto;html=1;exitX=0.5;exitY=1;exitDx=0;exitDy=0;" edge="1" parent="1" source="y5Wp0UPC7-H-uwMYV2mb-5" target="y5Wp0UPC7-H-uwMYV2mb-17">
          <mxGeometry relative="1" as="geometry" />
        </mxCell>
        <mxCell id="y5Wp0UPC7-H-uwMYV2mb-5" value="异常变正常" style="rounded=0;whiteSpace=wrap;html=1;" vertex="1" parent="1">
          <mxGeometry x="923" y="826" width="118" height="61.34" as="geometry" />
        </mxCell>
        <mxCell id="y5Wp0UPC7-H-uwMYV2mb-19" style="edgeStyle=orthogonalEdgeStyle;rounded=0;orthogonalLoop=1;jettySize=auto;html=1;exitX=0.5;exitY=1;exitDx=0;exitDy=0;" edge="1" parent="1" source="y5Wp0UPC7-H-uwMYV2mb-6" target="y5Wp0UPC7-H-uwMYV2mb-16">
          <mxGeometry relative="1" as="geometry" />
        </mxCell>
        <mxCell id="y5Wp0UPC7-H-uwMYV2mb-6" value="异常不变" style="rounded=0;whiteSpace=wrap;html=1;" vertex="1" parent="1">
          <mxGeometry x="723" y="826" width="118" height="61.34" as="geometry" />
        </mxCell>
        <mxCell id="y5Wp0UPC7-H-uwMYV2mb-22" style="edgeStyle=orthogonalEdgeStyle;rounded=0;orthogonalLoop=1;jettySize=auto;html=1;exitX=0.5;exitY=1;exitDx=0;exitDy=0;" edge="1" parent="1" source="y5Wp0UPC7-H-uwMYV2mb-7" target="HyDP0fXbinYU09aLnzdq-178">
          <mxGeometry relative="1" as="geometry">
            <Array as="points">
              <mxPoint x="582" y="1019" />
              <mxPoint x="883" y="1019" />
            </Array>
          </mxGeometry>
        </mxCell>
        <mxCell id="y5Wp0UPC7-H-uwMYV2mb-7" value="正常不变" style="rounded=0;whiteSpace=wrap;html=1;" vertex="1" parent="1">
          <mxGeometry x="523" y="826" width="118" height="61.34" as="geometry" />
        </mxCell>
        <mxCell id="y5Wp0UPC7-H-uwMYV2mb-11" value="" style="endArrow=classic;html=1;rounded=0;entryX=0.5;entryY=0;entryDx=0;entryDy=0;exitX=0.516;exitY=0.988;exitDx=0;exitDy=0;exitPerimeter=0;" edge="1" parent="1" source="y5Wp0UPC7-H-uwMYV2mb-1" target="y5Wp0UPC7-H-uwMYV2mb-7">
          <mxGeometry width="50" height="50" relative="1" as="geometry">
            <mxPoint x="612" y="758" as="sourcePoint" />
            <mxPoint x="662" y="708" as="targetPoint" />
          </mxGeometry>
        </mxCell>
        <mxCell id="y5Wp0UPC7-H-uwMYV2mb-12" value="" style="endArrow=classic;html=1;rounded=0;exitX=0.499;exitY=1.003;exitDx=0;exitDy=0;exitPerimeter=0;entryX=0.5;entryY=0;entryDx=0;entryDy=0;" edge="1" parent="1" source="y5Wp0UPC7-H-uwMYV2mb-1" target="y5Wp0UPC7-H-uwMYV2mb-6">
          <mxGeometry width="50" height="50" relative="1" as="geometry">
            <mxPoint x="897" y="732" as="sourcePoint" />
            <mxPoint x="785" y="813" as="targetPoint" />
          </mxGeometry>
        </mxCell>
        <mxCell id="y5Wp0UPC7-H-uwMYV2mb-14" value="" style="endArrow=classic;html=1;rounded=0;entryX=0.5;entryY=0;entryDx=0;entryDy=0;exitX=0.5;exitY=1;exitDx=0;exitDy=0;exitPerimeter=0;" edge="1" parent="1" source="y5Wp0UPC7-H-uwMYV2mb-1" target="y5Wp0UPC7-H-uwMYV2mb-4">
          <mxGeometry width="50" height="50" relative="1" as="geometry">
            <mxPoint x="1412" y="589" as="sourcePoint" />
            <mxPoint x="1100" y="692" as="targetPoint" />
          </mxGeometry>
        </mxCell>
        <mxCell id="y5Wp0UPC7-H-uwMYV2mb-15" value="" style="endArrow=classic;html=1;rounded=0;entryX=0.5;entryY=0;entryDx=0;entryDy=0;exitX=0.5;exitY=1;exitDx=0;exitDy=0;exitPerimeter=0;" edge="1" parent="1" source="y5Wp0UPC7-H-uwMYV2mb-1" target="y5Wp0UPC7-H-uwMYV2mb-5">
          <mxGeometry width="50" height="50" relative="1" as="geometry">
            <mxPoint x="892" y="785" as="sourcePoint" />
            <mxPoint x="1190" y="721" as="targetPoint" />
          </mxGeometry>
        </mxCell>
        <mxCell id="y5Wp0UPC7-H-uwMYV2mb-23" style="edgeStyle=orthogonalEdgeStyle;rounded=0;orthogonalLoop=1;jettySize=auto;html=1;exitX=0.5;exitY=1;exitDx=0;exitDy=0;" edge="1" parent="1" source="y5Wp0UPC7-H-uwMYV2mb-16" target="HyDP0fXbinYU09aLnzdq-178">
          <mxGeometry relative="1" as="geometry" />
        </mxCell>
        <mxCell id="y5Wp0UPC7-H-uwMYV2mb-16" value="一小时内没推送过消息，则再次推送" style="rounded=0;whiteSpace=wrap;html=1;" vertex="1" parent="1">
          <mxGeometry x="723" y="924" width="118" height="61.34" as="geometry" />
        </mxCell>
        <mxCell id="y5Wp0UPC7-H-uwMYV2mb-24" style="edgeStyle=orthogonalEdgeStyle;rounded=0;orthogonalLoop=1;jettySize=auto;html=1;exitX=0.5;exitY=1;exitDx=0;exitDy=0;" edge="1" parent="1" source="y5Wp0UPC7-H-uwMYV2mb-17" target="HyDP0fXbinYU09aLnzdq-178">
          <mxGeometry relative="1" as="geometry" />
        </mxCell>
        <mxCell id="y5Wp0UPC7-H-uwMYV2mb-17" value="修复服务器状态，&lt;br&gt;推送服务器恢复消息" style="rounded=0;whiteSpace=wrap;html=1;" vertex="1" parent="1">
          <mxGeometry x="923" y="924" width="118" height="61.34" as="geometry" />
        </mxCell>
        <mxCell id="y5Wp0UPC7-H-uwMYV2mb-25" style="edgeStyle=orthogonalEdgeStyle;rounded=0;orthogonalLoop=1;jettySize=auto;html=1;exitX=0.5;exitY=1;exitDx=0;exitDy=0;" edge="1" parent="1" source="y5Wp0UPC7-H-uwMYV2mb-18" target="HyDP0fXbinYU09aLnzdq-178">
          <mxGeometry relative="1" as="geometry" />
        </mxCell>
        <mxCell id="y5Wp0UPC7-H-uwMYV2mb-18" value="修复服务器状态，&lt;br&gt;推送服务器异常消息" style="rounded=0;whiteSpace=wrap;html=1;" vertex="1" parent="1">
          <mxGeometry x="1123" y="924" width="118" height="61.34" as="geometry" />
        </mxCell>
      </root>
    </mxGraphModel>
  </diagram>
</mxfile>
